<mxfile host="app.diagrams.net" modified="2021-09-26T03:51:45.176Z" agent="5.0 (Macintosh; Intel Mac OS X 10_15_6) AppleWebKit/537.36 (KHTML, like Gecko) Chrome/93.0.4577.82 Safari/537.36" etag="8HMGV1vMwKzEKU_2xIOH" version="15.3.1" type="github">
  <diagram id="C5RBs43oDa-KdzZeNtuy" name="Page-1">
    <mxGraphModel dx="1082" dy="695" grid="1" gridSize="10" guides="1" tooltips="1" connect="1" arrows="1" fold="1" page="1" pageScale="1" pageWidth="827" pageHeight="1169" math="0" shadow="0">
      <root>
        <mxCell id="WIyWlLk6GJQsqaUBKTNV-0" />
        <mxCell id="WIyWlLk6GJQsqaUBKTNV-1" parent="WIyWlLk6GJQsqaUBKTNV-0" />
        <mxCell id="CzLK94wb_cirYh5jQj2z-20" style="edgeStyle=orthogonalEdgeStyle;rounded=0;orthogonalLoop=1;jettySize=auto;html=1;exitX=0.5;exitY=1;exitDx=0;exitDy=0;entryX=0.5;entryY=0;entryDx=0;entryDy=0;entryPerimeter=0;" edge="1" parent="WIyWlLk6GJQsqaUBKTNV-1" source="CzLK94wb_cirYh5jQj2z-0" target="CzLK94wb_cirYh5jQj2z-8">
          <mxGeometry relative="1" as="geometry" />
        </mxCell>
        <mxCell id="CzLK94wb_cirYh5jQj2z-0" value="定时器" style="rounded=1;whiteSpace=wrap;html=1;fontSize=12;glass=0;strokeWidth=1;shadow=0;fillColor=#d5e8d4;strokeColor=#82b366;" vertex="1" parent="WIyWlLk6GJQsqaUBKTNV-1">
          <mxGeometry x="166" y="90" width="120" height="40" as="geometry" />
        </mxCell>
        <mxCell id="CzLK94wb_cirYh5jQj2z-1" value="内存diff" style="rounded=0;whiteSpace=wrap;html=1;fillColor=#f8cecc;strokeColor=#b85450;" vertex="1" parent="WIyWlLk6GJQsqaUBKTNV-1">
          <mxGeometry x="49" y="350" width="90" height="30" as="geometry" />
        </mxCell>
        <mxCell id="CzLK94wb_cirYh5jQj2z-3" value="cpu火焰图" style="rounded=0;whiteSpace=wrap;html=1;fillColor=#f8cecc;strokeColor=#b85450;" vertex="1" parent="WIyWlLk6GJQsqaUBKTNV-1">
          <mxGeometry x="49" y="394" width="90" height="30" as="geometry" />
        </mxCell>
        <mxCell id="CzLK94wb_cirYh5jQj2z-19" style="edgeStyle=orthogonalEdgeStyle;rounded=0;orthogonalLoop=1;jettySize=auto;html=1;exitX=0.5;exitY=0.88;exitDx=0;exitDy=0;exitPerimeter=0;entryX=0.5;entryY=0;entryDx=0;entryDy=0;" edge="1" parent="WIyWlLk6GJQsqaUBKTNV-1" source="CzLK94wb_cirYh5jQj2z-8" target="CzLK94wb_cirYh5jQj2z-18">
          <mxGeometry relative="1" as="geometry" />
        </mxCell>
        <mxCell id="CzLK94wb_cirYh5jQj2z-8" value="网盘文件夹" style="strokeWidth=2;html=1;shape=mxgraph.flowchart.multi-document;whiteSpace=wrap;fillColor=#fff2cc;strokeColor=#d6b656;" vertex="1" parent="WIyWlLk6GJQsqaUBKTNV-1">
          <mxGeometry x="182" y="190" width="88" height="60" as="geometry" />
        </mxCell>
        <mxCell id="CzLK94wb_cirYh5jQj2z-30" style="edgeStyle=orthogonalEdgeStyle;rounded=0;orthogonalLoop=1;jettySize=auto;html=1;exitX=1;exitY=0.5;exitDx=0;exitDy=0;entryX=0;entryY=0.5;entryDx=0;entryDy=0;" edge="1" parent="WIyWlLk6GJQsqaUBKTNV-1" source="CzLK94wb_cirYh5jQj2z-9" target="CzLK94wb_cirYh5jQj2z-29">
          <mxGeometry relative="1" as="geometry" />
        </mxCell>
        <mxCell id="CzLK94wb_cirYh5jQj2z-9" value="任务队列" style="rounded=1;whiteSpace=wrap;html=1;fontSize=12;glass=0;strokeWidth=1;shadow=0;fillColor=#f8cecc;strokeColor=#b85450;" vertex="1" parent="WIyWlLk6GJQsqaUBKTNV-1">
          <mxGeometry x="400" y="170" width="76" height="130" as="geometry" />
        </mxCell>
        <mxCell id="CzLK94wb_cirYh5jQj2z-14" value="扫描" style="text;html=1;strokeColor=none;fillColor=none;align=center;verticalAlign=middle;whiteSpace=wrap;rounded=0;" vertex="1" parent="WIyWlLk6GJQsqaUBKTNV-1">
          <mxGeometry x="184" y="135" width="40" height="20" as="geometry" />
        </mxCell>
        <mxCell id="CzLK94wb_cirYh5jQj2z-22" style="edgeStyle=orthogonalEdgeStyle;rounded=0;orthogonalLoop=1;jettySize=auto;html=1;exitX=0;exitY=0.5;exitDx=0;exitDy=0;" edge="1" parent="WIyWlLk6GJQsqaUBKTNV-1" source="CzLK94wb_cirYh5jQj2z-18">
          <mxGeometry relative="1" as="geometry">
            <mxPoint x="226" y="160" as="targetPoint" />
            <Array as="points">
              <mxPoint x="110" y="305" />
              <mxPoint x="110" y="160" />
            </Array>
          </mxGeometry>
        </mxCell>
        <mxCell id="CzLK94wb_cirYh5jQj2z-33" style="edgeStyle=orthogonalEdgeStyle;rounded=0;orthogonalLoop=1;jettySize=auto;html=1;exitX=0.5;exitY=1;exitDx=0;exitDy=0;entryX=0.5;entryY=0;entryDx=0;entryDy=0;" edge="1" parent="WIyWlLk6GJQsqaUBKTNV-1" source="CzLK94wb_cirYh5jQj2z-18" target="CzLK94wb_cirYh5jQj2z-32">
          <mxGeometry relative="1" as="geometry" />
        </mxCell>
        <mxCell id="CzLK94wb_cirYh5jQj2z-18" value="是否需要处理" style="rhombus;whiteSpace=wrap;html=1;fillColor=#d5e8d4;strokeColor=#82b366;" vertex="1" parent="WIyWlLk6GJQsqaUBKTNV-1">
          <mxGeometry x="166.5" y="275" width="119.5" height="60" as="geometry" />
        </mxCell>
        <mxCell id="CzLK94wb_cirYh5jQj2z-23" value="N" style="text;html=1;strokeColor=none;fillColor=none;align=center;verticalAlign=middle;whiteSpace=wrap;rounded=0;" vertex="1" parent="WIyWlLk6GJQsqaUBKTNV-1">
          <mxGeometry x="126" y="280" width="40" height="20" as="geometry" />
        </mxCell>
        <mxCell id="CzLK94wb_cirYh5jQj2z-25" value="Y" style="text;html=1;strokeColor=none;fillColor=none;align=center;verticalAlign=middle;whiteSpace=wrap;rounded=0;" vertex="1" parent="WIyWlLk6GJQsqaUBKTNV-1">
          <mxGeometry x="190" y="340" width="40" height="20" as="geometry" />
        </mxCell>
        <mxCell id="CzLK94wb_cirYh5jQj2z-29" value="生成分析文件" style="rounded=0;whiteSpace=wrap;html=1;fillColor=#fff2cc;strokeColor=#d6b656;" vertex="1" parent="WIyWlLk6GJQsqaUBKTNV-1">
          <mxGeometry x="516" y="215" width="90" height="40" as="geometry" />
        </mxCell>
        <mxCell id="CzLK94wb_cirYh5jQj2z-37" style="edgeStyle=orthogonalEdgeStyle;rounded=0;orthogonalLoop=1;jettySize=auto;html=1;exitX=1;exitY=0.5;exitDx=0;exitDy=0;entryX=0;entryY=0.5;entryDx=0;entryDy=0;" edge="1" parent="WIyWlLk6GJQsqaUBKTNV-1" source="CzLK94wb_cirYh5jQj2z-32" target="CzLK94wb_cirYh5jQj2z-9">
          <mxGeometry relative="1" as="geometry" />
        </mxCell>
        <mxCell id="CzLK94wb_cirYh5jQj2z-32" value="创建处理任务" style="rounded=0;whiteSpace=wrap;html=1;fillColor=#f8cecc;strokeColor=#b85450;" vertex="1" parent="WIyWlLk6GJQsqaUBKTNV-1">
          <mxGeometry x="181" y="389" width="90" height="40" as="geometry" />
        </mxCell>
        <mxCell id="CzLK94wb_cirYh5jQj2z-42" style="edgeStyle=orthogonalEdgeStyle;rounded=0;orthogonalLoop=1;jettySize=auto;html=1;exitX=0;exitY=0.5;exitDx=0;exitDy=0;exitPerimeter=0;entryX=0;entryY=0.5;entryDx=0;entryDy=0;" edge="1" parent="WIyWlLk6GJQsqaUBKTNV-1" source="CzLK94wb_cirYh5jQj2z-38" target="CzLK94wb_cirYh5jQj2z-32">
          <mxGeometry relative="1" as="geometry" />
        </mxCell>
        <mxCell id="CzLK94wb_cirYh5jQj2z-38" value="" style="strokeWidth=2;html=1;shape=mxgraph.flowchart.annotation_1;align=left;pointerEvents=1;rotation=-180;" vertex="1" parent="WIyWlLk6GJQsqaUBKTNV-1">
          <mxGeometry x="144" y="349" width="14" height="120" as="geometry" />
        </mxCell>
        <mxCell id="CzLK94wb_cirYh5jQj2z-40" value="。。。" style="rounded=0;whiteSpace=wrap;html=1;fillColor=#f8cecc;strokeColor=#b85450;" vertex="1" parent="WIyWlLk6GJQsqaUBKTNV-1">
          <mxGeometry x="49" y="437" width="90" height="30" as="geometry" />
        </mxCell>
        <mxCell id="CzLK94wb_cirYh5jQj2z-44" value="网盘文件夹格式：/profiling/server_name/date_s/event_type/job_type/." style="rounded=0;whiteSpace=wrap;html=1;fillColor=#fff2cc;strokeColor=#d6b656;" vertex="1" parent="WIyWlLk6GJQsqaUBKTNV-1">
          <mxGeometry x="49" y="500" width="561" height="30" as="geometry" />
        </mxCell>
      </root>
    </mxGraphModel>
  </diagram>
</mxfile>
